<?xml version="1.0" standalone="no"?>
<!DOCTYPE svg PUBLIC "-//W3C//DTD SVG 20010904//EN"
 "http://www.w3.org/TR/2001/REC-SVG-20010904/DTD/svg10.dtd">
<svg version="1.0" xmlns="http://www.w3.org/2000/svg"
 width="500.000000pt" height="500.000000pt" viewBox="0 0 500.000000 500.000000"
 preserveAspectRatio="xMidYMid meet">
<metadata>
Created by potrace 1.14, written by Peter Selinger 2001-2017
</metadata>
<g transform="translate(0.000000,500.000000) scale(0.100000,-0.100000)"
fill="#000000" stroke="none">
<path d="M2250 3929 c-110 -20 -197 -48 -308 -101 -93 -45 -176 -103 -241
-169 -47 -48 -178 -210 -198 -246 -15 -26 -66 -214 -97 -353 -25 -114 -28
-133 -31 -245 -7 -199 46 -346 195 -543 82 -108 164 -179 337 -289 16 -10 16
-11 -7 -8 -14 2 -65 6 -115 10 -49 3 -108 8 -130 11 -22 2 -60 6 -85 9 -46 4
-109 12 -170 20 -19 3 -53 7 -75 10 -22 3 -56 7 -75 10 -134 17 -140 17 -141
4 0 -8 0 -44 1 -81 l1 -68 -43 -1 c-75 -2 -201 5 -240 13 -20 4 -12 -16 57
-153 l65 -127 -24 -43 c-13 -24 -44 -80 -69 -124 -27 -46 -42 -82 -36 -85 30
-19 388 -19 487 0 1 0 2 21 2 46 l0 46 67 -7 c37 -4 70 -8 73 -10 3 -1 41 -6
85 -10 44 -4 82 -8 85 -10 3 -1 50 -6 105 -10 55 -4 120 -8 145 -10 308 -24
968 -24 1260 0 19 2 80 6 135 10 55 4 109 9 120 11 10 2 49 6 85 10 36 3 72 7
80 9 8 2 43 6 78 10 67 7 66 8 62 -52 -1 -31 -1 -31 62 -40 101 -15 418 -6
436 12 2 1 -28 58 -67 125 l-70 123 70 133 c38 73 69 135 69 139 0 4 -33 4
-72 0 -88 -7 -205 -8 -217 -1 -4 3 -7 40 -6 82 l3 76 -65 -7 c-35 -3 -74 -8
-86 -11 -22 -4 -53 -8 -147 -20 -30 -3 -62 -8 -70 -9 -38 -7 -176 -20 -310
-30 -52 -4 -105 -8 -118 -10 -20 -3 -154 -8 -175 -6 -5 1 24 23 65 50 144 97
308 268 383 400 29 52 80 192 115 316 42 149 42 289 1 412 -11 32 -27 87 -36
123 -26 104 -126 300 -182 358 -7 7 -13 17 -13 20 0 4 -28 38 -62 74 -74 79
-124 104 -224 111 -40 3 -118 21 -180 41 -60 19 -139 42 -177 49 -73 16 -294
19 -367 6z"/>
</g>
</svg>
